<svg xmlns="http://www.w3.org/2000/svg" width="254.063" height="170.924" viewBox="0 0 254.063 170.924"><path fill="#FFC72C" d="M90.088 61.856h82.824c.533-3.736 2.934-10.937 9.869-17.071.268-.402.4-1.333-.267-1.867-.533-.536-1.334-.268-1.866.132-2.001 1.467-3.735 2.4-5.069 2.534-1.333 0-2.267.534-3.067 1.467l-1.334 1.199c-.533.401-.799.667-2.533.801-.533 0-1.334.8-.935 1.333.668.8 1.334 1.735 1.602 2.669.533 1.732.133 4-1.734 5.868-.666.8-1.601 1.065-2.667.934-.667-.134-1.201-.401-1.201-1.067 0-.667.268-1.333.935-1.734 1.2-1.066 1.2-2.933-.134-3.866a2.98 2.98 0 0 0-2.801-.268c-1.867.799-1.867 2.667-.801 4.134.134.268 0 1.067-.267 1.734-.533.801-1.467 1.335-2.4.934-1.601-.8-2.935-3.602-2.268-5.201.8-1.201 1.734-2.4 2.667-3.336-1.066-1.733-2.533-3.2-4.267-4.001-1.868.801-3.335 2.269-4.401 4.001.933 1.067 1.866 2.135 2.134 3.336.399 1.467.134 3.2-1.067 4.667-.8.935-2.267 1.201-3.468.534-.934-.534-.8-1.735-.266-2.668.799-1.332.666-2.533-.534-3.6-.934-.668-2.001-.534-2.802 0-1.2 1.067-1.066 2.133-.133 3.6.267.401 0 1.067-.134 1.467-.666 1.869-2.267 2.001-3.867 1.069-2.935-2.668-2.668-5.602.666-8.404.801-.666.401-1.865-.933-2.133-2.401-.4-4.535-1.601-5.869-3.602-1.333-2.934-3.2-2.8-4.533 0-.935 2.001-3.603 3.202-5.736 3.602-1.334.268-1.734 1.467-1.067 2.001 3.335 2.934 3.335 6.534.667 8.536-1.334.8-2.934.666-3.868-1.069-.266-.534-.4-1.065-.133-1.599.934-1.335 1.067-2.668-.133-3.468-.935-.534-1.868-.668-2.935 0-1.066.934-1.201 2.269-.4 3.6.534.667.4 1.868-.267 2.536-.801.8-2.268.534-3.468-.401-1.2-1.333-1.333-3.602-1.066-4.667.4-1.333 1.2-2.4 2-3.468a10.342 10.342 0 0 0-4.269-4.001c-1.733.933-3.201 2.4-4.401 4.001 1.067 1.067 2 2.134 2.667 3.468.667 1.599-.4 4.267-2.134 5.068-1.067.398-2.001 0-2.4-.933-.267-.536-.401-1.201-.267-1.603 1.2-1.467.667-3.2-.8-4-.934-.4-2.001-.534-2.934.133-1.201.934-1.467 2.8-.134 3.866.668.401 1.067.933 1.067 1.603-.133.933-.667 1.065-1.334 1.199-1.066.132-1.733-.266-2.533-.934-2.001-1.868-2.268-3.867-1.868-6.002.266-.934 1.067-1.735 1.733-2.535.401-.533-.4-1.201-1.066-1.333-1.734-.4-2.135-.534-2.4-.801l-1.334-1.333c-.801-.8-1.867-1.333-3.068-1.333-1.333-.134-3.201-1.067-5.068-2.534-.533-.4-1.333-.534-1.734-.132-.533.534-.8 1.332-.533 1.733 7.069 6.268 9.47 13.469 10.137 17.205z"/><path fill="#FFC72C" d="M86.353 41.717c2.134.665 4.401 1.333 6.135 2.4 1.067.533 2.534.266 3.734-.666 4.935-4.003 10.669-7.203 17.338-9.336 1.334-.402 2 .532 1.334 1.065-2.667 2-4.668 4.669-5.735 8.135-.267.934.8 1.735 2.134 1.335 1.201-.401 2-.268 2.8.134.934.532 2.134 0 2.401-1.601.667-4.535 3.068-7.202 7.068-9.336 2.135-.933 3.468 1.067 2.668 2.001-1.467 1.601-2.535 3.202-2.934 5.067-.134 1.467.933 2.269 2.4 1.867.933-.4 1.6-.934 2.267-2.4.667-1.467 2-2.133 3.467-2.133 1.335 0 2.802.801 3.335 2.133.534 1.467 1.2 2 2.001 2.4 1.6.401 2.801-.4 2.667-1.867-.267-1.865-1.467-3.334-2.934-4.933-.934-1.201.666-3.202 2.533-2.4 3.868 2.133 6.402 5.067 7.069 9.602.4 1.601 1.601 2.133 2.4 1.601.8-.402 1.734-.536 2.801-.134 1.467.534 2.401-.268 2.268-1.335-1.2-3.466-3.067-6.134-5.735-8.135-.8-.667.134-1.333 1.201-1.065 6.802 2.133 12.403 5.333 17.471 9.336 1.067.932 2.534 1.199 3.603.666 1.866-1.067 3.867-1.735 6.134-2.4 1.468-.134 2.268-1.601 1.468-2.802-.935-1.465-2.667-2.667-4.535-2.667-.801.134-1.467.134-2.001-.667-1.333-2.135-3.601-2.933-6.668-2.4-1.468-1.733-3.468-2.133-5.602-1.999-2.001-2-4.135-2.269-6.402-1.869-2.533-1.601-4.801-2.135-6.668-1.065-3.201-1.201-6.002-.801-8.27.666-.8-1.735-1.867-2.934-3.734-3.6v-2.134h2.935v-2.934h-2.935v-3.068h-5.068v3.068h-2.934v2.934h2.934v2.134c-1.734.666-3.067 1.865-3.733 3.6-2.401-1.467-4.935-1.867-8.136-.666-2-1.069-4.401-.536-6.668 1.065-2.4-.4-4.535-.132-6.402 1.869-2.268-.134-4.269.266-5.736 1.999-3.067-.532-5.334.266-6.535 2.4-.534.801-1.334.801-2.134.667-1.601 0-3.468 1.201-4.535 2.667-.533 1.334 0 2.399 1.468 2.801zm45.079-14.805c1.602 0 2.802 1.601 2.802 3.6 0 2-1.2 3.735-2.802 3.735-1.6 0-2.934-1.735-2.934-3.735 0-1.999 1.334-3.6 2.934-3.6zM172.911 67.59H90.088v7.737h82.824V67.59zM99.29 73.858c-1.333 0-2.267-1.067-2.267-2.267 0-1.202.934-2.267 2.267-2.267 1.201 0 2.268 1.065 2.268 2.267-.001 1.2-1.067 2.267-2.268 2.267zm15.871 0c-1.2 0-2.267-1.067-2.267-2.267 0-1.202 1.067-2.267 2.267-2.267 1.333 0 2.267 1.065 2.267 2.267 0 1.2-.933 2.267-2.267 2.267zm16.271 0c-1.2 0-2.266-1.067-2.266-2.267 0-1.202 1.065-2.267 2.266-2.267s2.268 1.065 2.268 2.267c-.001 1.2-1.067 2.267-2.268 2.267zm16.272 0c-1.2 0-2.268-1.067-2.268-2.267 0-1.202 1.067-2.267 2.268-2.267s2.268 1.065 2.268 2.267c0 1.2-1.067 2.267-2.268 2.267zm15.871 0c-1.334 0-2.267-1.067-2.267-2.267 0-1.202.933-2.267 2.267-2.267 1.2 0 2.268 1.065 2.268 2.267 0 1.2-1.067 2.267-2.268 2.267zM90.088 63.723h82.824v2.133H90.088z"/><path fill="#0C2340" d="M65.947 125.607l-.799 1.333c9.603 1.067 15.07 4.935 17.338 6.936.8.8 1.2 1.334 1.2 1.334 6.002-6.668 15.871-8.003 15.871-8.003-1.6-.8-2.134-3.066-2.134-3.468V99.334c0-1.335 1.867-2.802 1.867-2.802-5.868-.666-14.938-4.533-16.805-5.469l-.399-.134c-5.869 5.069-15.338 5.603-15.338 5.603-.133 1.067 1.467 3.068 1.467 3.068v23.606c-.001.001-.535.267-2.268 2.401zm12.27-27.74c0-.268 2.134.531 4.268 1.331a98.106 98.106 0 0 0 4.269 1.735v24.674c-1.734-.401-3.201-.802-4.269-1.067-3.468-1.067-4.268-2-4.268-2V97.867zM133.3 125.607c-.4.668-.801 1.333-.801 1.333 9.604 1.067 15.071 4.935 17.338 6.936.802.8 1.201 1.334 1.201 1.334 5.868-6.668 15.872-8.003 15.872-8.003-1.602-.8-2.135-3.066-2.135-3.468V99.334c0-1.335 1.867-2.802 1.867-2.802-5.868-.666-14.938-4.533-16.806-5.469l-.399-.134c-5.868 5.069-15.338 5.603-15.338 5.603-.133 1.067 1.468 3.068 1.468 3.068v23.606c.001.001-.534.267-2.267 2.401zm12.271-27.74c0-.268 2.134.531 4.267 1.331a98.694 98.694 0 0 0 4.269 1.735v24.674c-1.733-.401-3.201-.802-4.269-1.067-3.468-1.067-4.267-2-4.267-2V97.867zM242.132 126.407c-2.668-.399-3.602-2.668-3.602-3.468V96.132c-6.269-2-12.537-4.269-14.538-4.935l-.666-.268c-7.069 4.269-14.805 5.603-14.805 5.603-.133 1.067 1.467 3.068 1.467 3.068v24.806s-.267.399-.934 1.334c-.267.399-.8.933-.934 1.2 6.936.8 14.537 7.069 15.871 8.137.134 0 .268.133.268.133l6.135-6.668 6.936 6.668 8.135-8.27s-.666-.131-3.333-.533zm-14.271-.8c-1.2-.935-2.534-1.734-3.868-2.4-2.134-1.201-3.867-1.868-3.867-1.868V97.867c.267.266 2 .934 3.867 1.599 2.001.802 3.868 1.468 3.868 1.468v24.673zM119.029 99.066c8.936 4.935 12.27.934 13.071-2.267-3.468-.801-7.869-5.87-7.869-5.87l-1.2.934c-7.335 4.803-6.269 3.867-6.269 3.867-.933-1.333-6.668-4.801-6.668-4.801l-8.936 5.603c3.201.268 4.534 3.202 4.534 4.667v25.741h-3.201c6.936 4.002 8.803 8.27 8.803 8.27s1.867-4.268 8.803-8.27h-3.201V100c-.001-1.468 2.133-.934 2.133-.934zM203.053 99.866s1.734-3.066.934-3.334c-3.601-1.468-10.27-5.603-10.27-5.603l-1.2.934c-7.336 4.803-8.936 4.136-8.936 4.136-.934-1.468-6.669-4.802-6.669-4.802l-8.669 5.335c3.201.268 4.534 3.202 4.534 4.667v25.741h-3.2c6.936 4.002 8.803 8.27 8.803 8.27s1.866-4.268 8.936-8.27h-3.334v-26.007l4.667-2.669 3.602 2.669v26.007h-3.201c6.936 4.002 8.402 8.27 8.402 8.27s1.867-4.268 8.803-8.27h-3.201V99.866z"/><path fill="#0C2340" d="M67.68 132.542c-2.134 1.068-3.467 1.734-5.868 2.401V84.93c9.47 1.601 14.805-3.734 14.805-3.734-7.869 0-15.471-9.604-15.471-9.604-4.935 4.533-9.603 7.603-13.604 9.736-8.67 4.669-14.405 4.801-14.405 4.801 3.068 1.467 2.667 5.2 2.667 5.2v35.878l-4 3.47c-7.869-5.203-13.071-13.472-13.737-22.941-.8-14.537 10.27-30.144 25.607-34.676-21.073.132-41.612 14.803-42.812 35.742V113.338c1.334 19.071 15.738 31.609 36.811 31.609 3.333 0 6.668-.401 9.87-1.069 3.867-.932 7.735-2.267 11.203-3.999v5.467c-.533-.132-1.2-.267-1.734-.267-2.667 0-4.801 2.001-4.801 4.401s2.134 4.268 4.801 4.268c2.667 0 4.801-1.867 4.801-4.268v-11.337c2.401-1.599 3.868-3.066 5.868-5.066.534-.268.667-.668 1.067-1.067l-1.068.532zm-8.935 3.201c-1.734.268-3.467.534-5.334.534a42.865 42.865 0 0 1-5.868 0c-4.001-.4-7.869-1.467-11.204-3.068l11.204-9.868 2.8-2.534V82.129l1.467-.933c2.535 1.467 4.802 2.4 6.936 3.066v51.481zM247.79 136.696h.913s.838.932 1.292 1.926h1.051s-.726-1.374-1.431-2.045c0 0 1.051-.259 1.051-1.258 0-.7-.483-1.291-1.704-1.291h-2.004v4.594h.832v-1.926zm0-2.007h1.102c.396 0 .867.105.867.63s-.463.66-.867.66c-.408 0-1.102.009-1.102.009v-1.299z"/><path fill="#0C2340" d="M244.522 136.277a4.34 4.34 0 1 0 8.68 0 4.346 4.346 0 0 0-4.338-4.343 4.35 4.35 0 0 0-4.342 4.343zm4.342-3.527a3.535 3.535 0 0 1 3.527 3.527 3.53 3.53 0 0 1-7.058 0 3.53 3.53 0 0 1 3.531-3.527z"/></svg>